<svg width="298" height="83" viewBox="0 0 298 83" fill="none" xmlns="http://www.w3.org/2000/svg">
<path fill-rule="evenodd" clip-rule="evenodd" d="M0 34.4394C0 42.9836 3.12981 50.7836 8.27885 56.8009C21.7356 43.4942 50.1779 36.9952 64.8115 34.4394C50.1779 31.8836 21.7356 25.3846 8.27885 12.0779C3.12981 18.0952 0 25.8981 0 34.4394Z" fill="url(#paint0_linear_3180_2435)"/>
<path fill-rule="evenodd" clip-rule="evenodd" d="M34.4401 0C30.0872 0 25.942 0.839423 22.1055 2.31058C25.2093 6.19615 41.943 25.699 68.7785 32.3683C67.6997 14.3163 52.7632 0 34.4401 0Z" fill="url(#paint1_linear_3180_2435)"/>
<path fill-rule="evenodd" clip-rule="evenodd" d="M22.1055 66.5679C25.942 68.0391 30.0872 68.8785 34.4401 68.8785C52.7632 68.8785 67.6997 54.5622 68.7785 36.5103C41.943 43.1824 25.2093 62.6824 22.1055 66.5679Z" fill="url(#paint2_linear_3180_2435)"/>
<path fill-rule="evenodd" clip-rule="evenodd" d="M291.608 5.76731C288.377 5.76731 285.758 8.38654 285.758 11.6173C285.758 14.851 288.377 17.4702 291.608 17.4702C294.839 17.4702 297.458 14.851 297.458 11.6173C297.458 8.38654 294.839 5.76731 291.608 5.76731V5.76731ZM256.889 21.3498H264.345L265.225 25.296H265.667C267.152 23.6287 268.56 21.3498 274 21.3498H281.901V29.245H274.88C268.736 29.245 265.667 32.3171 265.667 38.3719V65.2277H256.889V21.3498ZM242.958 43.2872C242.958 34.1602 237.255 28.3708 229.792 28.3708C222.336 28.3708 216.633 34.1602 216.633 43.2872C216.633 52.4141 222.336 58.2064 229.792 58.2064C237.255 58.2064 242.958 52.4141 242.958 43.2872V43.2872ZM207.855 43.2871C207.855 29.6861 217.069 20.4698 229.793 20.4698C242.52 20.4698 251.736 29.6861 251.736 43.2871C251.736 56.891 242.52 66.1044 229.793 66.1044C217.069 66.1044 207.855 56.891 207.855 43.2871V43.2871ZM169.084 74.8796H177.862C179.618 74.8796 180.585 73.2123 180.85 72.2489L182.252 68.2998L164.264 21.3498H173.477L186.201 54.696H187.952L199.364 21.3498H208.58L189.273 75.321C187.517 80.1469 184.883 82.7806 178.303 82.7806H169.084V74.8796ZM126.824 3.79417H135.602V41.5336L154.032 21.3499H164.558L144.816 42.849L165.438 65.2278H154.906L135.602 44.1672V65.2278H126.824V3.79417ZM83.9146 46.3591C83.9146 52.0648 89.7069 57.3293 98.8339 57.3293C108.927 57.3293 112.876 53.3802 112.876 48.1158C112.876 43.6389 109.363 40.6562 102.344 39.3379L90.4944 37.1427C80.7531 35.3918 76.0166 29.3341 76.0166 20.911C76.0166 10.8148 84.3502 2.91965 97.9569 2.91965C113.312 2.91965 121.213 11.6947 121.213 22.662H111.996C111.996 16.9591 106.732 11.6947 97.9569 11.6947C89.6233 11.6947 85.23 15.9956 85.23 20.911C85.23 24.8572 87.7742 27.9322 94.4435 29.2447L104.098 31.0014C116.473 33.1937 122.09 38.3716 122.09 48.1158C122.09 58.2062 114.192 66.1043 98.8339 66.1043C83.4733 66.1043 74.7012 57.3293 74.7012 46.3591H83.9146ZM287.219 65.2277H295.997V21.3498H287.219V65.2277Z" fill="#263148"/>
<defs>
<linearGradient id="paint0_linear_3180_2435" x1="0" y1="56.7642" x2="64.7041" y2="56.7642" gradientUnits="userSpaceOnUse">
<stop stop-color="#C7EAFB"/>
<stop offset="1" stop-color="#8ED8F8"/>
</linearGradient>
<linearGradient id="paint1_linear_3180_2435" x1="22.1055" y1="32.3417" x2="68.7012" y2="32.3417" gradientUnits="userSpaceOnUse">
<stop stop-color="#C7EAFB"/>
<stop offset="1" stop-color="#8ED8F8"/>
</linearGradient>
<linearGradient id="paint2_linear_3180_2435" x1="22.1055" y1="68.8519" x2="68.7012" y2="68.8519" gradientUnits="userSpaceOnUse">
<stop stop-color="#C7EAFB"/>
<stop offset="1" stop-color="#8ED8F8"/>
</linearGradient>
</defs>
</svg>
