<svg width="42" height="42" viewBox="0 0 42 42" fill="none" xmlns="http://www.w3.org/2000/svg">
<path fill-rule="evenodd" clip-rule="evenodd" d="M14 40.642C16.2999 41.5073 18.7901 42 21.3998 42C32.3921 42 41.3528 33.5964 42 23C25.8991 26.9165 15.8603 38.3629 14 40.642ZM42 19C41.3528 8.40456 32.3921 0 21.3998 0C18.7901 0 16.2999 0.494386 14 1.35956C15.8603 3.63848 25.8991 15.0839 42 19ZM5.10794 35C1.92994 31.3655 0 26.6565 0 21.5C0 16.3417 1.92994 11.6327 5.10794 8C13.4135 16.0335 30.9699 19.957 40 21.5C30.9699 23.043 13.4135 26.9665 5.10794 35Z" fill="#263148"/>
</svg>
