<svg width="230" height="162" viewBox="0 0 230 162" fill="none" xmlns="http://www.w3.org/2000/svg">
<path d="M230 83.3855C225.138 80.308 220.76 77.5454 216.358 74.7829C215.68 74.3467 215.608 73.7409 215.438 73.0381C213.624 65.4532 211.81 57.8684 209.899 50.3077C209.73 49.605 209.996 48.1025 208.52 48.5145C207.335 48.8538 205.497 48.3449 205.521 50.7439C205.569 55.2028 205.279 59.6616 205.207 64.1204C205.182 65.8652 204.723 67.3676 203.731 68.8458C201.699 71.9234 200.006 75.1948 197.877 78.1755C195.434 81.5923 194.225 85.2757 193.862 89.4195C193.354 95.4535 192.604 101.487 191.83 107.497C191.685 108.685 192.072 109 192.991 109.194C194.394 109.533 195.821 109.799 197.224 110.163C198.289 110.429 199.111 110.284 199.788 109.266C200.32 108.442 201.07 107.764 201.82 106.916C204.021 109.436 206.247 111.762 208.206 114.282C209.488 115.954 209.391 118.208 209.875 120.171C211.157 125.381 212.487 130.567 213.358 135.85C214.229 141.108 213.503 146.415 213.237 151.722C213.213 152.158 213.02 152.473 212.56 152.498C210.794 152.522 209.028 152.619 207.263 152.473C206.222 152.376 206.537 151.213 206.44 150.559C205.666 144.477 204.989 138.37 204.263 132.069C202.546 133.426 201.602 135.268 200.393 136.867C199.74 137.74 199.256 137.982 198.143 137.691C195.628 137.037 193.064 136.625 190.524 136.068C188.613 135.656 187.258 134.25 186.097 132.893C182.904 129.137 179.494 128.822 175.116 130.906C172.769 132.021 171.681 132.869 172.02 135.583C172.431 138.782 172.31 142.029 172.431 145.252C172.455 146.173 172.721 147.118 171.27 147.263C165.174 147.845 160.917 151.94 156.442 155.454C154.676 156.835 152.983 157.126 150.951 156.835C148.605 156.472 146.234 156.254 143.888 155.939C142.146 155.721 140.405 155.478 138.929 154.363C136.922 152.837 134.793 152.279 132.277 153.128C130.923 153.588 129.447 153.612 127.682 153.879C128.601 155.066 129.375 156.06 130.221 157.15C128.528 158.144 126.883 159.065 125.311 160.107C124.15 160.858 123.11 160.906 121.973 160.155C119.772 158.701 117.547 158.386 115.224 160.034C110.798 163.184 106.807 162.094 102.042 159.937C95.946 157.15 91.4952 153.637 89.8504 147.021C89.7536 146.657 89.5601 146.318 89.3908 145.979C87.8669 142.489 87.8669 142.441 83.9483 142.901C83.1743 142.998 82.6421 142.804 82.0858 142.32C80.9973 141.35 79.9088 140.357 78.6994 139.557C77.5867 138.806 76.9336 137.958 77.0545 136.552C77.1997 135.098 76.4015 134.565 75.0469 134.444C70.0882 133.984 65.1295 133.499 60.1708 132.942C58.792 132.796 58.3083 133.329 57.9938 134.541C57.3891 136.819 56.5909 139.073 55.9861 141.35C55.6959 142.441 55.2363 142.586 54.2446 142.102C51.221 140.672 48.149 139.291 45.077 137.958C44.0611 137.522 43.6015 136.698 43.0935 135.85C41.5213 133.232 40.5053 129.549 38.1832 128.289C35.7644 126.956 32.0635 128.095 28.9431 127.804C26.5726 127.586 25.8228 128.434 25.7018 130.688C25.5083 134.371 25.0487 138.031 24.7585 141.714C24.6859 142.732 24.565 143.507 23.3071 143.604C18.2275 143.992 16.3892 147.215 15.8328 151.843C15.5426 154.315 14.6234 156.69 13.9703 159.162C12.011 157.998 10.9467 156.399 10.1727 154.363C6.97974 145.93 3.6417 137.57 0.279463 129.21C-0.204312 127.998 -0.155935 127.441 1.19863 126.859C4.68181 125.333 8.04405 123.467 11.5514 121.964C13.0995 121.31 13.3656 120.486 13.1237 119.008C11.8175 111.447 10.5839 103.887 9.25349 96.3501C9.05998 95.3323 9.20511 94.6296 9.83402 93.8299C10.6564 92.8121 11.237 91.6247 12.1078 90.6554C14.3815 88.0867 15.6877 85.4211 13.5107 82.1497C12.906 81.2288 13.5349 80.7442 14.0429 80.1868C16.1957 77.8847 18.3726 75.6068 20.5013 73.2804C21.0818 72.6504 21.6381 72.2384 22.4847 72.5777C23.9844 73.1835 25.2423 72.5777 26.6452 72.0446C31.2652 70.324 34.6275 67.3676 37.1431 63.0542C39.6346 58.765 42.7549 54.8393 45.4399 50.6228C46.5525 48.8538 48.2699 48.4418 49.939 47.7633C50.7856 47.424 50.8098 47.9814 50.9307 48.5145C52.2127 54.4273 53.4705 60.3401 54.7525 66.2529C54.8251 66.5437 55.0186 67.0042 54.9218 67.1011C53.5915 68.24 51.8015 67.5615 50.326 68.1673C49.5036 68.5066 49.1165 67.9492 48.7537 67.2707C47.5927 65.0413 46.3832 62.8361 44.9561 60.1463C43.795 64.6293 42.7549 68.652 41.6664 72.917C44.2788 72.917 46.746 73.0866 49.1649 72.8927C55.2605 72.3354 61.0174 74.0074 66.7018 75.728C69.9189 76.6973 72.6522 76.6488 75.1194 74.2982C76.6917 72.7958 77.7318 73.4501 79.038 74.7829C81.6988 77.5212 84.5289 80.1141 87.4315 82.8767C88.8345 76.8669 90.2374 70.736 91.7613 64.1931C93.9141 66.3014 95.8976 68.1916 97.7601 70.1786C98.6067 71.0753 99.1872 71.1964 99.7436 70.009C99.7678 69.9363 99.8403 69.8879 99.8645 69.8152C101.703 66.0591 104.847 64.2416 108.863 63.7327C109.734 63.6116 110.435 63.3208 111.088 62.6907C113.991 59.9282 116.869 57.1656 119.844 54.5242C121.03 53.458 121.344 52.0283 121.755 50.6955C122.142 49.4596 122.699 49.1203 123.884 49.3142C125.916 49.6777 127.972 49.92 130.004 50.3077C131.697 50.647 132.036 52.4887 133.172 53.458C134.6 54.6939 134.067 55.9055 133.39 57.2868C131.697 60.7036 130.076 64.1689 128.407 67.61C129.133 68.1189 129.592 67.4646 130.052 67.2222C133.946 65.2836 137.768 63.1996 141.711 61.3337C143.162 60.6551 143.888 59.8312 143.622 58.2076C143.404 56.9233 143.985 56.5356 145.243 56.0509C148.508 54.7908 150.709 55.6632 152.959 58.2561C156.128 61.891 156.297 61.7214 159.272 58.0138C159.756 57.408 160.215 56.8021 160.748 56.2448C162.296 54.6454 163.36 52.8764 162.852 50.5258C162.465 48.7084 163.408 47.7391 164.811 46.8909C166.384 45.9458 167.787 44.7342 169.383 43.7891C172.358 42.0201 174.753 39.718 176.374 36.6889C177.269 35.0168 178.43 34.1687 180.389 34.5564C183.582 35.1864 185.493 34.0475 186.702 30.8003C188.008 27.2381 190.234 24.0151 191.661 20.4771C194.781 12.6741 199.788 6.34938 205.932 0.751597C206.996 -0.217716 207.335 -0.363113 208.182 0.993925C211.012 5.52546 211.084 5.477 207.843 9.59658C207.65 9.83891 207.432 10.057 207.263 10.2993C204.892 13.3527 204.868 14.322 206.9 17.5207C207.819 18.9505 209.415 18.6354 210.625 18.7324C212.584 18.902 213.165 19.8228 213.527 21.5191C214.689 26.8988 216.043 32.2543 217.156 37.634C218.22 42.7956 217.543 48.0541 217.567 53.2641C217.567 55.6147 218.099 57.5291 219.599 59.3466C221.486 61.6487 223.106 64.1931 224.945 66.568C225.96 67.9008 226.202 69.4759 226.614 71.0268C227.75 75.001 228.815 78.9509 230 83.3855ZM86.5849 51.1559C86.1737 51.1559 85.7141 51.4224 85.3271 51.6405C83.005 52.9491 80.6103 54.1607 78.3849 55.639C74.684 58.1107 71.4186 60.8732 72.6038 66.156C72.7973 67.0526 72.8941 67.5615 73.91 67.4403C74.5873 67.3676 75.2888 67.3434 75.9661 67.4403C77.8044 67.7311 78.5059 66.9799 78.1672 65.2109C77.6834 62.7634 78.8687 61.3821 80.8038 60.0251C85.3271 56.8264 89.8504 53.6761 94.93 51.1559C92.1483 51.1316 89.3666 51.1074 86.5849 51.1559ZM208.133 107.473C211.617 112.61 215.1 117.748 218.559 122.909C220.083 125.187 221.389 122.909 222.622 122.546C224.146 122.085 222.622 121.189 222.308 120.68C218.293 113.87 212.391 108.685 206.948 102.772C206.247 104.832 207.238 106.116 208.133 107.473Z" fill="#B7EFE0"/>
</svg>
