<svg width="13" height="13" viewBox="0 0 13 13" fill="none" xmlns="http://www.w3.org/2000/svg">
<path d="M5.82402 12.288C5.70669 11.5946 5.39735 10.848 4.89602 10.048C4.39469 9.2373 3.68002 8.4853 2.75202 7.79197C1.83469 7.09863 0.917354 6.65597 2.10404e-05 6.46397V5.79197C0.906688 5.57863 1.77602 5.18397 2.60802 4.60797C3.45069 4.0213 4.15469 3.3173 4.72002 2.49597C5.29602 1.6533 5.66402 0.8213 5.82402 -3.33786e-05H6.49602C6.59202 0.533299 6.78402 1.08263 7.07202 1.64797C7.36002 2.20263 7.72802 2.73597 8.17602 3.24797C8.63469 3.7493 9.14669 4.20263 9.71202 4.60797C10.5547 5.2053 11.4134 5.59997 12.288 5.79197V6.46397C11.7014 6.5813 11.0934 6.8213 10.464 7.18397C9.84535 7.54663 9.26935 7.97863 8.73602 8.47997C8.20269 8.97063 7.76536 9.48797 7.42402 10.032C6.92269 10.832 6.61335 11.584 6.49602 12.288H5.82402Z" fill="#00A77E"/>
</svg>
