<?xml version="1.0" encoding="UTF-8" standalone="no"?>
<!-- Created with Inkscape (http://www.inkscape.org/) -->
<svg
   xmlns:dc="http://purl.org/dc/elements/1.1/"
   xmlns:cc="http://creativecommons.org/ns#"
   xmlns:rdf="http://www.w3.org/1999/02/22-rdf-syntax-ns#"
   xmlns:svg="http://www.w3.org/2000/svg"
   xmlns="http://www.w3.org/2000/svg"
   xmlns:sodipodi="http://sodipodi.sourceforge.net/DTD/sodipodi-0.dtd"
   xmlns:inkscape="http://www.inkscape.org/namespaces/inkscape"
   id="svg2559"
   sodipodi:version="0.32"
   inkscape:version="0.46"
   width="202"
   height="252"
   version="1.0"
   sodipodi:docname="Coat_of_Arms_of_Perm.svg"
   inkscape:output_extension="org.inkscape.output.svg.inkscape">
  <metadata
     id="metadata2564">
    <rdf:RDF>
      <cc:Work
         rdf:about="">
        <dc:format>image/svg+xml</dc:format>
        <dc:type
           rdf:resource="http://purl.org/dc/dcmitype/StillImage" />
      </cc:Work>
    </rdf:RDF>
  </metadata>
  <defs
     id="defs2562" />
  <sodipodi:namedview
     inkscape:window-height="713"
     inkscape:window-width="1280"
     inkscape:pageshadow="2"
     inkscape:pageopacity="0.0"
     guidetolerance="10.0"
     gridtolerance="10.0"
     objecttolerance="10.0"
     borderopacity="1.0"
     bordercolor="#666666"
     pagecolor="#ffffff"
     id="base"
     showgrid="false"
     inkscape:zoom="1.9761905"
     inkscape:cx="101"
     inkscape:cy="126"
     inkscape:window-x="0"
     inkscape:window-y="0"
     inkscape:current-layer="svg2559"
     showguides="true"
     inkscape:guide-bbox="true">
    <inkscape:grid
       type="xygrid"
       id="grid2766"
       visible="true"
       enabled="true" />
  </sodipodi:namedview>
  <g
     id="g4076"
     transform="translate(0.6578054,1.2600435)">
    <g
       style="fill:#f71a22;fill-opacity:1;stroke:#1a1a1a"
       transform="matrix(1.4282682,0,0,1.2957641,-313.5417,-67.952127)"
       id="g3799">
      <path
         style="fill:#f71a22;fill-opacity:1;fill-rule:evenodd;stroke:#1a1a1a;stroke-width:1.47015166;stroke-linejoin:miter;stroke-miterlimit:4;stroke-dasharray:none;stroke-opacity:1"
         d="M 220.78023,53.284163 L 220.78023,217.54039 C 220.78023,225.34341 227.0397,231.60289 234.84274,231.60289 L 275.75214,231.60289 C 283.55516,231.60289 289.81464,236.33128 289.81464,244.1343 C 289.81464,236.33128 296.1366,231.60289 303.93964,231.60289 L 344.71774,231.60289 C 352.52076,231.60289 358.7802,225.34341 358.78024,217.54039 L 358.78024,53.284163 C 358.78024,53.284163 220.78023,53.284163 220.78023,53.284163 z"
         id="rect2800"
         sodipodi:nodetypes="ccccsccccc" />
    </g>
    <path
       sodipodi:nodetypes="ccccccccccccc"
       id="rect2768"
       d="M 97,30.487952 L 92,18.487952 L 108,18.487952 L 103,30.487952 L 115,25.487952 L 115,41.487952 L 103,36.487952 L 108,48.487952 L 92,48.487952 L 97,36.487952 L 85,41.487952 L 85,25.487952 L 97,30.487952 z"
       style="fill:#ffffff;fill-opacity:1;fill-rule:evenodd;stroke:#333333;stroke-width:1.20000005;stroke-linecap:butt;stroke-linejoin:miter;marker:none;marker-start:none;marker-mid:none;marker-end:none;stroke-miterlimit:4;stroke-dasharray:none;stroke-dashoffset:0;stroke-opacity:1;visibility:visible;display:inline;overflow:visible;enable-background:accumulate" />
    <g
       id="g3833">
      <path
         style="fill:#ffffff;fill-rule:evenodd;stroke:#1a1a1a;stroke-width:0.8434388px;stroke-linecap:butt;stroke-linejoin:miter;stroke-opacity:1"
         d="M 41.754542,179.82027 C 41.754542,179.82027 40.717552,183.44857 40.341004,186.03773 C 39.939218,188.80043 40.196235,190.46057 40.196235,190.46057 C 40.196235,190.46057 39.22104,188.52555 39.063291,186.38391 C 38.896637,184.12139 39.54694,181.72032 39.54694,181.72032 L 41.39743,178.85468 L 41.754542,179.82027 z"
         id="path3589"
         sodipodi:nodetypes="cscsccc" />
      <path
         style="fill:#ffffff;fill-rule:evenodd;stroke:#1a1a1a;stroke-width:1;stroke-linecap:butt;stroke-linejoin:miter;stroke-miterlimit:4;stroke-dasharray:none;stroke-opacity:1"
         d="M 49.795752,109.01487 C 49.342068,109.61557 48.834068,110.51464 48.639453,111.24183 C 48.413368,112.08659 48.590121,113.46906 48.76793,114.32529 C 49.000425,115.44486 50.052708,117.58006 50.052708,117.58006 L 54.763559,117.62289 C 54.763559,117.62289 56.459639,114.83203 56.690725,113.42595 C 56.852787,112.43985 56.594315,111.05478 56.219641,110.12836 C 55.874695,109.27544 55.240376,108.06278 54.420952,107.64445 C 53.494081,107.17127 52.261865,107.21756 51.29466,107.60163 C 50.72026,107.82971 50.168227,108.5217 49.795752,109.01487 z"
         id="path3563"
         sodipodi:nodetypes="cssccsssss" />
      <path
         style="fill:#1a1a1a;fill-rule:evenodd;stroke:#1a1a1a;stroke-width:1px;stroke-linecap:butt;stroke-linejoin:miter;stroke-opacity:1"
         d="M 50.8664,112.82638 C 50.8664,112.82638 50.880029,111.60092 51.123356,111.15617 C 51.468522,110.52529 51.360619,110.49471 52.0227,110.214 C 52.319358,110.08822 52.781473,110.04736 53.093348,110.12835 C 53.541709,110.24479 54.125106,110.59684 54.378126,110.98487 C 54.826918,111.67313 54.849211,113.6829 54.849211,113.6829 C 54.849211,113.6829 53.633814,112.27395 52.922045,112.14117 C 52.464571,112.05583 52.50606,111.94836 52.065526,112.09834 C 51.667133,112.23398 50.8664,112.82638 50.8664,112.82638 z"
         id="path3565"
         sodipodi:nodetypes="csssscssc" />
      <path
         style="fill:#ffffff;fill-rule:evenodd;stroke:#1a1a1a;stroke-width:0.8434388px;stroke-linecap:butt;stroke-linejoin:miter;stroke-opacity:1"
         d="M 43.245188,180.52021 C 43.245188,180.52021 42.208198,184.14851 41.83165,186.73767 C 41.429864,189.50037 41.686881,191.16051 41.686881,191.16051 C 41.686881,191.16051 40.711686,189.22549 40.553937,187.08385 C 40.387283,184.82133 41.037586,182.42026 41.037586,182.42026 L 42.888076,179.55462 L 43.245188,180.52021 z"
         id="path3591"
         sodipodi:nodetypes="cscsccc" />
      <path
         style="fill:#ffffff;fill-rule:evenodd;stroke:#1a1a1a;stroke-width:0.8434388px;stroke-linecap:butt;stroke-linejoin:miter;stroke-opacity:1"
         d="M 44.888509,180.96839 C 44.888509,180.96839 43.851519,184.59669 43.474971,187.18585 C 43.073185,189.94855 43.330202,191.60869 43.330202,191.60869 C 43.330202,191.60869 42.355007,189.67367 42.197258,187.53203 C 42.030604,185.26951 42.680907,182.86844 42.680907,182.86844 L 44.531397,180.0028 L 44.888509,180.96839 z"
         id="path3593"
         sodipodi:nodetypes="cscsccc" />
      <path
         style="fill:#ffffff;fill-rule:evenodd;stroke:#1a1a1a;stroke-width:0.8434388px;stroke-linecap:butt;stroke-linejoin:miter;stroke-opacity:1"
         d="M 46.218511,177.79414 C 46.218511,177.79414 46.3406,181.56574 46.075218,184.16865 C 45.792048,186.94601 45.138442,188.49356 45.138442,188.49356 C 45.138442,188.49356 46.555547,186.85432 47.230144,184.81559 C 47.942818,182.66179 47.896879,180.17464 47.896879,180.17464 L 46.80004,176.9446 L 46.218511,177.79414 z"
         id="path3595"
         sodipodi:nodetypes="cscsccc" />
      <path
         style="fill:#ffffff;fill-rule:evenodd;stroke:#1a1a1a;stroke-width:1px;stroke-linecap:butt;stroke-linejoin:miter;stroke-opacity:1"
         d="M 75.129775,150.42456 C 75.129775,150.42456 54.285685,159.93419 47.458254,166.73426 C 44.829553,169.35243 42.772825,174.03357 41.135952,177.36306 C 40.44457,178.76937 39.211774,182.21932 39.211774,182.21932 C 39.211774,182.21932 41.411027,183.96627 42.785249,184.05187 C 43.800347,184.11511 45.718257,183.65134 46.541978,183.1356 C 47.427623,182.58109 48.359497,181.84115 49.015922,181.02816 C 49.936505,179.888 50.742962,177.1775 51.142279,175.76754 C 51.346727,175.04565 51.306611,174.70885 51.306611,174.70885 C 51.306611,174.70885 51.842746,175.38543 51.996805,176.1719 C 52.208172,177.25092 52.343397,179.31711 52.343397,179.31711 C 52.343397,179.31711 54.324726,177.36187 54.696831,176.08027 C 54.911438,175.34112 54.696831,173.5147 54.696831,173.5147 C 54.696831,173.5147 55.65216,175.2554 55.796361,176.08027 C 55.957583,177.0025 55.613106,179.19561 55.613106,179.19561 C 55.613106,179.19561 57.922301,177.17709 58.361933,175.98865 C 58.667117,175.16366 58.361933,173.05656 58.361933,173.05656 C 58.361933,173.05656 59.233747,174.88164 59.461463,175.71376 C 59.666683,176.46367 59.827974,178.27933 59.827974,178.27933 C 59.827974,178.27933 61.218784,176.65911 61.47727,175.80539 C 61.811829,174.70042 61.47727,171.95703 61.47727,171.95703 C 61.47727,171.95703 62.364508,173.66536 62.668428,174.43098 C 63.104649,175.52988 63.859586,178.18771 63.859586,178.18771 C 63.859586,178.18771 65.395402,175.58979 65.60051,174.33935 C 65.779374,173.24891 65.233999,170.67425 65.233999,170.67425 C 65.233999,170.67425 65.76824,173.115 66.241902,174.06447 C 66.592857,174.76797 67.799571,176.1719 67.799571,176.1719 C 67.799571,176.1719 68.605813,174.54737 68.715846,173.78958 C 68.86641,172.75265 68.440964,170.30774 68.440964,170.30774 C 68.440964,170.30774 68.795444,173.284 69.632122,174.15609 C 70.541002,175.10344 73.755362,175.62214 73.755362,175.62214 L 81.818587,167.74217 L 75.129775,150.42456 z"
         id="path3585"
         sodipodi:nodetypes="csscsssscscscscscscscscscscscsccc" />
      <path
         style="fill:#ffffff;fill-rule:evenodd;stroke:#1a1a1a;stroke-width:0.8434388px;stroke-linecap:butt;stroke-linejoin:miter;stroke-opacity:1"
         d="M 120.34972,201.11871 C 120.34972,201.11871 116.6584,201.90233 114.19454,202.78261 C 111.56553,203.72191 110.21924,204.72671 110.21924,204.72671 C 110.21924,204.72671 111.47193,202.95863 113.29012,201.81596 C 115.21092,200.60878 117.63687,200.05848 117.63687,200.05848 L 121.0355,200.35086 L 120.34972,201.11871 z"
         id="path3610"
         sodipodi:nodetypes="cscsccc" />
      <path
         style="fill:#ffffff;fill-rule:evenodd;stroke:#1a1a1a;stroke-width:0.8434388px;stroke-linecap:butt;stroke-linejoin:miter;stroke-opacity:1"
         d="M 118.81768,199.38041 C 118.81768,199.38041 115.12636,200.16403 112.66249,201.04431 C 110.03348,201.98361 108.68719,202.98841 108.68719,202.98841 C 108.68719,202.98841 109.93988,201.22033 111.75807,200.07766 C 113.67888,198.87048 116.10482,198.32018 116.10482,198.32018 L 119.50346,198.61256 L 118.81768,199.38041 z"
         id="path3612"
         sodipodi:nodetypes="cscsccc" />
      <path
         style="fill:#ffffff;fill-rule:evenodd;stroke:#1a1a1a;stroke-width:0.8434388px;stroke-linecap:butt;stroke-linejoin:miter;stroke-opacity:1"
         d="M 117.22814,197.63949 C 117.22814,197.63949 113.53682,198.42311 111.07295,199.30339 C 108.44395,200.24269 107.09766,201.24749 107.09766,201.24749 C 107.09766,201.24749 108.35034,199.47941 110.16853,198.33674 C 112.08934,197.12956 114.51528,196.57926 114.51528,196.57926 L 117.91392,196.87164 L 117.22814,197.63949 z"
         id="path3614"
         sodipodi:nodetypes="cscsccc" />
      <path
         style="fill:#ffffff;fill-rule:evenodd;stroke:#1a1a1a;stroke-width:1px;stroke-linecap:butt;stroke-linejoin:miter;stroke-opacity:1"
         d="M 111.57463,161.97063 L 111.57463,171.18318 C 111.57463,171.18318 111.64762,173.3097 111.85664,174.19183 C 112.03995,174.96547 112.81957,176.66091 112.81957,176.66091 L 114.56249,173.67306 L 114.56249,172.42812 C 114.56249,172.42812 114.32917,175.84561 114.56249,177.28338 C 114.71384,178.21602 115.55844,180.27124 115.55844,180.27124 L 116.67888,177.40788 L 116.80337,176.41192 C 116.80337,176.41192 116.33977,179.16403 116.4299,180.76921 C 116.48291,181.7133 116.92787,183.88156 116.92787,183.88156 L 118.29731,181.76517 L 118.67079,180.27124 C 118.67079,180.27124 118.25502,182.48396 118.29731,184.13055 C 118.32145,185.07064 118.67079,187.2429 118.67079,187.2429 L 120.16472,184.75302 L 120.66269,183.50808 C 120.66269,183.50808 120.12454,186.37552 120.16471,187.61638 C 120.18439,188.22405 120.5382,189.60828 120.5382,189.60828 L 122.28111,187.2429 C 122.28111,187.2429 121.5664,189.22214 121.40965,190.10626 C 121.29211,190.76922 121.28516,192.34715 121.28516,192.34715 C 121.28516,192.34715 118.16678,195.12024 116.55439,195.83298 C 115.68349,196.21795 114.19876,195.87747 113.44204,196.45545 C 113.17657,196.65822 112.93558,197.11746 112.94407,197.4514 C 112.9942,199.42422 113.77243,201.7162 115.55844,202.55566 C 116.89774,203.18515 119.66741,202.86921 121.03617,202.30667 C 122.37764,201.75534 123.55125,199.9744 125.01998,199.56781 C 126.64611,199.11764 129.01533,200.58048 130.62221,200.06578 C 131.9339,199.64563 133.51418,198.32065 134.10804,197.07793 C 134.65579,195.93169 134.59999,194.06121 134.23253,192.84513 C 133.9148,191.79364 132.73861,189.98177 132.73861,189.98177 C 132.73861,189.98177 133.22637,187.81495 133.23658,186.86942 C 133.24838,185.77613 132.73861,184.25504 132.73861,184.25504 C 132.73861,184.25504 133.55647,185.89278 133.98354,186.99391 C 134.11655,187.33686 134.48152,188.11436 134.48152,188.11436 C 134.48152,188.11436 134.96016,186.73811 134.9795,186.12245 C 135.02481,184.68005 134.60602,182.51213 134.60602,182.51213 C 134.60602,182.51213 134.83093,183.95862 135.47747,184.87751 C 135.70593,185.20221 136.47342,185.74897 136.47342,185.74897 L 136.47342,182.63662 L 135.85095,179.64877 L 137.22039,182.51213 C 137.22039,182.51213 137.98761,179.74412 137.96735,178.52832 C 137.93293,176.46261 136.47342,171.80565 136.47342,171.80565 L 137.59387,164.83399 L 117.92382,158.98277 L 111.57463,161.97063 z"
         id="path3587"
         sodipodi:nodetypes="ccscccscccscccscccsccscssssssssscscscscsccccscccc" />
      <path
         style="fill:#ffffff;fill-rule:evenodd;stroke:#1a1a1a;stroke-width:0.8434388px;stroke-linecap:butt;stroke-linejoin:miter;stroke-opacity:1"
         d="M 74.91445,203.48997 C 74.91445,203.48997 71.223129,204.27359 68.759263,205.15387 C 66.130258,206.09317 64.783968,207.09797 64.783968,207.09797 C 64.783968,207.09797 66.036657,205.32989 67.854843,204.18722 C 69.77565,202.98004 72.201595,202.42974 72.201595,202.42974 L 75.600229,202.72212 L 74.91445,203.48997 z"
         id="path3597"
         sodipodi:nodetypes="cscsccc" />
      <path
         style="fill:#ffffff;fill-rule:evenodd;stroke:#1a1a1a;stroke-width:0.8434388px;stroke-linecap:butt;stroke-linejoin:miter;stroke-opacity:1"
         d="M 73.382402,201.75167 C 73.382402,201.75167 69.691081,202.53529 67.227215,203.41557 C 64.59821,204.35487 63.25192,205.35967 63.25192,205.35967 C 63.25192,205.35967 64.504609,203.59159 66.322795,202.44892 C 68.243602,201.24174 70.669547,200.69144 70.669547,200.69144 L 74.068181,200.98382 L 73.382402,201.75167 z"
         id="path3599"
         sodipodi:nodetypes="cscsccc" />
      <path
         style="fill:#ffffff;fill-rule:evenodd;stroke:#1a1a1a;stroke-width:0.8434388px;stroke-linecap:butt;stroke-linejoin:miter;stroke-opacity:1"
         d="M 71.792863,200.01075 C 71.792863,200.01075 68.101542,200.79437 65.637676,201.67465 C 63.008671,202.61395 61.662381,203.61875 61.662381,203.61875 C 61.662381,203.61875 62.91507,201.85067 64.733256,200.708 C 66.654063,199.50082 69.080008,198.95052 69.080008,198.95052 L 72.478642,199.2429 L 71.792863,200.01075 z"
         id="path3601"
         sodipodi:nodetypes="cscsccc" />
      <path
         style="fill:#ffffff;fill-rule:evenodd;stroke:#1a1a1a;stroke-width:0.8434388px;stroke-linecap:butt;stroke-linejoin:miter;stroke-opacity:1"
         d="M 156.33668,202.60666 C 156.33668,202.60666 152.64536,203.39028 150.18149,204.27056 C 147.55249,205.20986 146.2062,206.21466 146.2062,206.21466 C 146.2062,206.21466 147.45889,204.44658 149.27707,203.30391 C 151.19788,202.09673 153.62383,201.54643 153.62383,201.54643 L 157.02246,201.83881 L 156.33668,202.60666 z"
         id="path3618"
         sodipodi:nodetypes="cscsccc" />
      <path
         style="fill:#ffffff;fill-rule:evenodd;stroke:#1a1a1a;stroke-width:0.8434388px;stroke-linecap:butt;stroke-linejoin:miter;stroke-opacity:1"
         d="M 154.80463,200.86836 C 154.80463,200.86836 151.11331,201.65198 148.64945,202.53226 C 146.02044,203.47156 144.67415,204.47636 144.67415,204.47636 C 144.67415,204.47636 145.92684,202.70828 147.74503,201.56561 C 149.66583,200.35843 152.09178,199.80813 152.09178,199.80813 L 155.49041,200.10051 L 154.80463,200.86836 z"
         id="path3620"
         sodipodi:nodetypes="cscsccc" />
      <path
         style="fill:#ffffff;fill-rule:evenodd;stroke:#1a1a1a;stroke-width:0.8434388px;stroke-linecap:butt;stroke-linejoin:miter;stroke-opacity:1"
         d="M 153.2151,199.12744 C 153.2151,199.12744 149.52377,199.91106 147.05991,200.79134 C 144.4309,201.73064 143.08461,202.73544 143.08461,202.73544 C 143.08461,202.73544 144.3373,200.96736 146.15549,199.82469 C 148.07629,198.61751 150.50224,198.06721 150.50224,198.06721 L 153.90087,198.35959 L 153.2151,199.12744 z"
         id="path3622"
         sodipodi:nodetypes="cscsccc" />
      <path
         style="fill:#ffffff;fill-rule:evenodd;stroke:#1a1a1a;stroke-width:1;stroke-linecap:butt;stroke-linejoin:miter;stroke-miterlimit:4;stroke-dasharray:none;stroke-opacity:1"
         d="M 49.991955,115.67779 C 48.624664,115.81548 46.785603,116.23217 45.56993,116.87294 C 44.152524,117.62004 42.482453,119.06817 41.506447,120.33884 C 40.863399,121.17603 40.570014,122.63202 39.990546,123.51441 C 39.56166,124.1675 38.887269,124.98688 38.279564,125.47796 C 36.781691,126.68839 34.597758,127.59635 32.769958,128.20289 C 32.01438,128.45362 31.068428,128.1622 30.379674,128.56143 C 29.870909,128.85633 29.306786,129.53991 29.184532,130.11512 C 28.962161,131.16138 29.353357,132.60108 29.782103,133.58103 C 29.937555,133.93633 30.499188,134.65665 30.499188,134.65665 C 30.499188,134.65665 30.442241,136.61233 30.977245,137.40547 C 31.221988,137.7683 31.801942,138.48708 32.172387,138.72013 C 32.729503,139.07062 34.084615,139.79576 34.084615,139.79576 C 34.084615,139.79576 34.292692,141.25025 34.682186,141.70799 C 35.253697,142.37964 37.311498,143.02264 37.311498,143.02264 L 44.004293,142.90313 C 44.004293,142.90313 45.568748,144.33604 46.238213,145.19979 C 46.68024,145.7701 47.032983,147.25743 47.032983,147.25743 C 47.032983,147.25743 48.075276,145.49412 48.025947,144.62314 C 47.981668,143.84132 48.128529,143.35928 48.128529,143.35928 C 48.128529,143.35928 48.575158,144.13282 48.98206,145.17888 C 49.26594,145.90868 49.552922,147.17046 49.552922,147.17046 C 49.552922,147.17046 50.831067,146.20047 50.987906,145.5424 C 51.171534,144.77193 51.451024,145.00974 51.451024,142.96588 C 51.451024,142.96588 51.831171,145.42989 51.892231,146.36904 C 51.944246,147.16908 51.554603,148.57706 51.554603,148.57706 C 51.554603,148.57706 53.019619,147.62575 53.445915,146.8471 C 53.651465,146.47165 54.45589,145.14248 54.669851,143.93238 C 54.973168,142.21691 54.892038,141.84444 54.892038,141.84444 C 54.892038,141.84444 54.995922,142.31372 54.924759,144.02719 C 54.868006,145.3937 54.838882,145.97594 54.843824,146.46931 C 54.851175,147.20315 54.96349,148.29773 54.96349,148.29773 C 54.96349,148.29773 55.96683,147.69404 56.43377,146.72759 C 56.986559,145.58345 57.702612,143.62221 57.702612,143.62221 C 57.702612,143.62221 56.954872,146.16912 57.031341,147.6837 C 57.05917,148.2349 57.431702,149.47929 57.431702,149.47929 L 59.682565,146.40689 C 59.682565,146.40689 58.625565,149.95845 58.585026,151.14961 C 58.561823,151.83139 58.70454,153.42038 58.70454,153.42038 C 58.70454,153.42038 59.921102,151.72943 60.258225,150.91058 C 60.622445,150.02591 61.445399,149.44852 61.445399,149.44852 C 61.445399,149.44852 60.997067,150.06631 61.094824,151.0301 C 61.182857,151.89802 61.682976,153.03304 61.572881,153.89844 C 61.528316,154.24874 61.094824,154.97406 61.094824,154.97406 C 61.094824,154.97406 62.354706,154.5171 62.768023,154.13747 C 63.325057,153.62583 63.965157,153.04391 63.965157,153.04391 L 63.24608,154.85455 C 63.24608,154.85455 61.924217,156.41615 61.811909,157.24483 C 61.707584,158.0146 62.505092,159.73969 62.505092,159.73969 C 62.505092,159.73969 62.784376,158.79371 63.007051,158.43998 C 63.452967,157.73162 63.979101,157.46594 63.979101,157.46594 C 63.979101,157.46594 64.109569,159.18095 64.23008,160.38607 C 64.30702,161.15548 65.164283,162.7883 65.164283,162.7883 L 66.3654,160.9199 L 66.813579,160.61116 C 66.813579,160.61116 66.193662,162.75734 66.309843,164.25633 C 66.362104,164.93061 67.032688,166.39165 67.032688,166.39165 L 68.100348,165.05708 L 69.034551,164.24637 C 69.034551,164.24637 68.324716,166.25714 68.367263,167.59277 C 68.397267,168.53466 69.034551,170.6623 69.034551,170.6623 L 70.369126,168.79389 L 70.801369,167.86567 C 70.801369,167.86567 70.362846,170.08134 70.466502,171.44356 C 70.530064,172.2789 71.231164,174.12933 71.231164,174.12933 L 73.038277,171.46304 L 73.572107,171.10051 C 73.572107,171.10051 72.406941,174.25457 72.448889,175.95591 C 72.470612,176.83693 73.171734,178.8032 73.171734,178.8032 L 74.639767,176.40097 L 75.087945,176.03844 C 75.087945,176.03844 74.331717,177.99138 74.239394,179.20358 C 74.177904,180.01095 74.639767,181.87273 74.639767,181.87273 L 75.968367,181.14768 C 75.968367,181.14768 75.479272,182.71599 75.346005,184.09969 C 75.280477,184.78007 75.69082,186.35186 75.69082,186.35186 L 77.004156,185.28486 C 77.004156,185.28486 76.45315,186.81149 76.47209,188.14523 C 76.484304,189.00538 77.222888,190.02456 77.347867,190.87568 C 77.43828,191.49139 77.308917,192.9497 77.308917,192.9497 L 79.177323,191.48167 L 80.025874,190.8363 C 80.025874,190.8363 79.140257,192.33716 78.643493,193.35007 C 78.391076,193.86475 77.842748,195.08502 77.842748,195.08502 C 77.842748,195.08502 77.842748,195.08502 77.842748,195.08502 C 77.842748,195.08502 74.016544,197.86627 72.104074,198.42146 C 71.103639,198.71189 69.379576,197.82718 68.634178,198.55492 C 68.174916,199.0033 68.329936,200.07153 68.500721,200.69024 C 68.952825,202.32809 70.102071,204.79402 71.703701,205.36125 C 73.160497,205.87719 75.104941,204.05763 76.64163,203.89322 C 79.795681,203.55576 84.139652,205.10126 87.184774,204.21292 C 88.72218,203.76441 90.826848,202.96396 91.455415,201.49098 C 91.977777,200.26688 90.921585,197.08689 90.921585,197.08689 C 90.921585,197.08689 90.921585,197.08689 90.921585,197.08689 C 90.921585,197.08689 90.921585,197.08689 90.921585,197.08689 C 90.921585,197.08689 91.455415,193.48353 91.455415,193.48353 L 92.78999,196.15268 L 93.857651,194.28428 L 92.923448,189.47981 L 94.124566,192.14896 L 95.058768,190.28055 L 95.058768,185.743 L 96.526801,188.27869 C 96.526801,188.27869 97.101215,186.34364 97.070453,185.4926 C 97.01482,183.95352 96.179214,181.89762 96.179214,181.89762 L 97.594461,183.47422 C 97.594461,183.47422 98.114734,181.82141 98.03724,181.10145 C 97.901365,179.83912 96.846501,177.83613 96.846501,177.83613 C 96.846501,177.83613 97.157968,178.61053 97.727919,178.93666 C 98.008086,179.09697 98.795579,179.07012 98.795579,179.07012 C 98.795579,179.07012 98.590889,176.48153 98.34968,175.39847 C 98.024565,173.93867 97.700032,171.93114 97.700032,171.93114 L 98.662121,172.79762 C 98.662121,172.79762 98.766422,171.55805 98.688594,171.03494 C 98.491876,169.71273 97.871336,167.97024 97.871336,167.97024 C 97.871336,167.97024 98.260061,168.63069 98.795579,169.32772 C 99.175032,169.82162 100.26361,170.79575 100.26361,170.79575 C 100.26361,170.79575 100.34447,168.16003 100.13015,167.05894 C 99.861556,165.67896 98.528664,162.65484 98.528664,162.65484 C 98.528664,162.65484 100.49336,166.82255 101.14246,168.49128 C 101.3538,169.03457 101.73164,169.86155 101.73164,169.86155 C 101.73164,169.86155 102.43365,168.01086 102.60665,167.18356 C 102.72857,166.60052 102.7979,165.8417 102.7979,165.8417 C 102.7979,165.8417 102.50866,168.00576 102.92541,169.0961 C 103.25501,169.95844 104.90169,171.45489 104.90169,171.45489 C 104.90169,171.45489 105.26477,169.26919 105.4117,168.33108 C 105.59125,167.1847 105.98546,166.59054 105.98546,166.59054 C 105.98546,166.59054 105.87075,167.24206 106.24047,168.33108 C 106.55082,169.24524 108.0255,171.00863 108.0255,171.00863 C 108.0255,171.00863 108.56089,169.46598 108.66301,168.77734 C 108.83696,167.60424 108.99865,167.18119 108.99865,167.18119 C 108.99865,167.18119 109.38541,167.71041 109.93803,168.84109 C 110.18502,169.34645 111.0218,170.37112 111.0218,170.37112 C 111.0218,170.37112 111.94135,168.8228 112.04182,168.07608 C 112.2456,166.56149 112.27376,165.66806 112.27376,165.66806 C 112.27376,165.66806 113.00287,165.88008 113.31684,167.24731 C 113.52231,168.14204 113.31684,170.30737 113.31684,170.30737 C 113.31684,170.30737 114.86341,169.4646 115.22938,168.84109 C 115.69899,168.041 115.80036,167.69729 115.67564,166.77799 C 115.60541,166.26036 115.79005,165.54673 115.79005,165.54673 C 115.79005,165.54673 116.30577,166.01418 116.56815,166.92856 C 116.89537,168.06893 116.69565,170.88113 116.69565,170.88113 C 116.69565,170.88113 117.95555,169.81037 118.28451,168.86775 C 118.46107,168.36182 118.55443,167.68739 118.55443,167.68739 C 118.55443,167.68739 118.50852,168.91644 118.70958,169.95958 C 118.80912,170.47605 119.3732,171.58239 119.3732,171.58239 C 119.3732,171.58239 120.59655,169.77769 120.90323,168.90484 C 121.14712,168.21067 121.28574,167.84177 121.28574,167.84177 C 121.28574,167.84177 121.12444,168.65214 121.34949,169.54235 C 121.54446,170.31357 122.56076,171.90115 122.56076,171.90115 C 122.56076,171.90115 123.57192,169.67131 123.77203,168.64984 C 123.89342,168.03019 123.83578,167.63363 123.83578,167.63363 C 123.83578,167.63363 124.43782,168.80019 124.79205,169.73361 C 125.09869,170.54163 126.00332,172.34741 126.00332,172.34741 C 126.00332,172.34741 126.76021,170.50564 126.89584,169.66986 C 127.0674,168.61267 127.16773,168.45621 127.16773,168.45621 C 127.16773,168.45621 127.46492,168.93573 127.97961,170.05236 C 128.25051,170.64009 129.19088,171.8374 129.19088,171.8374 C 129.19088,171.8374 129.62381,170.42348 129.70089,169.79736 C 129.86213,168.4876 129.70089,165.39853 129.70089,165.39853 C 129.70089,165.39853 130.74886,168.71584 130.92897,170.18827 C 131.00994,170.85022 130.91216,172.41116 130.91216,172.41116 C 130.91216,172.41116 131.69905,171.47627 131.92726,171.01008 C 132.26028,170.32979 132.63344,169.7643 132.63344,169.7643 L 133.05796,171.58239 L 133.3347,174.38744 L 134.73723,172.53866 L 135.19348,171.28742 L 135.24724,174.51494 L 135.821,176.49123 L 136.84102,175.21621 L 137.42477,173.90812 C 137.42477,173.90812 136.97653,175.64023 137.04908,176.9004 C 137.08375,177.50271 137.54228,178.85002 137.54228,178.85002 L 138.8173,177.06499 L 139.18292,175.85444 L 139.07231,178.65877 L 139.13606,180.95381 L 140.96616,178.63489 L 141.48605,177.45767 L 141.31275,180.80108 L 141.5727,183.40052 L 142.69912,182.1008 L 143.38035,180.58197 L 143.30565,182.79398 L 144.17213,185.74001 L 145.12526,183.9204 L 146.05448,181.68847 C 146.05448,181.68847 145.82156,183.48602 145.99173,185.30677 C 146.07746,186.22401 146.85821,188.25279 146.85821,188.25279 C 146.85821,188.25279 147.8203,187.51775 148.44775,186.6274 C 149.0752,185.73706 149.28037,185.35557 149.28037,185.35557 C 149.28037,185.35557 149.27127,186.07006 149.5921,187.14729 C 149.91294,188.22452 150.49742,189.46586 150.49742,189.46586 C 150.49742,189.46586 151.40676,188.50505 151.62384,187.99285 C 152.03412,187.0248 152.68752,185.88641 152.68752,185.88641 C 152.68752,185.88641 151.77765,188.37191 152.05708,189.98575 C 152.20865,190.86111 152.93834,191.88435 153.09685,192.75848 C 153.30092,193.88388 153.09685,196.57098 153.09685,196.57098 C 153.09685,196.57098 150.98001,197.42775 150.23748,198.044 C 149.78134,198.42256 149.11294,199.01755 149.02441,199.60366 C 148.83765,200.84007 150.49742,203.50281 150.49742,203.50281 C 150.49742,203.50281 152.6791,203.93521 153.61674,203.8494 C 155.04986,203.71824 156.92875,203.12015 158.20907,202.46303 C 160.97978,201.04098 163.63643,197.49259 166.44061,196.13774 C 166.73012,195.99786 167.21912,196.0652 167.48039,195.8778 C 168.18349,195.37349 168.12395,194.28186 168.36778,193.45166 C 168.58021,192.72838 168.62121,191.64884 168.36778,190.93888 C 167.87097,189.5471 166.57566,188.45112 165.92073,187.12637 C 165.47085,186.21639 165.23141,184.84483 165.1409,183.83376 C 164.96914,181.91504 164.87219,179.2473 165.48749,177.42182 C 165.76844,176.5883 166.84547,175.82667 167.1338,174.99568 C 168.02178,172.43647 167.15005,168.62363 167.78116,165.98929 C 168.06243,164.81523 169.11391,163.46576 169.34282,162.28037 C 169.99586,158.89863 169.14761,150.8013 169.14761,150.8013 C 169.14761,150.8013 165.99204,148.77826 165.08793,147.5621 C 164.1374,146.28351 163.29141,142.56451 163.29141,142.56451 C 163.29141,142.56451 164.14314,146.17898 165.04827,147.44467 C 166.357,149.27474 170.82669,151.8963 170.82669,151.8963 C 170.82669,151.8963 170.62495,145.91249 169.53802,143.54054 C 168.59279,141.47781 166.30903,139.31829 164.65633,137.76365 C 163.48637,136.6631 161.22818,135.70253 160.36332,134.56411 C 159.08601,132.88278 155.87687,130.80747 154.60931,129.11878 C 152.61906,126.46728 149.46639,125.782 146.54702,124.21074 C 144.66994,123.20046 143.67166,121.84832 141.54047,121.80201 C 139.87416,121.7658 137.13374,121.4822 137.13374,121.4822 L 140.45225,119.33493 C 140.45225,119.33493 135.46369,118.7986 133.42482,119.33493 C 131.92854,119.72853 128.93507,121.87261 128.93507,121.87261 L 131.12353,119.21903 C 131.12353,119.21903 127.83401,119.36943 126.20217,119.53014 C 123.68605,119.77794 120.3926,121.09563 117.93644,121.17416 C 109.72569,121.43669 100.45113,121.47449 91.449291,120.43604 C 88.769398,120.12689 84.553856,118.7865 81.890295,118.3589 C 80.017554,118.05825 75.643686,119.33493 75.643686,119.33493 L 78.532131,117.42405 C 78.532131,117.42405 75.644173,116.95586 74.472447,117.18766 C 73.643912,117.35157 72.129969,118.74931 72.129969,118.74931 L 73.496414,116.40683 C 73.496414,116.40683 70.119035,115.89143 68.811458,116.40683 C 67.693573,116.84746 65.88336,119.13972 65.88336,119.13972 L 67.835425,115.62601 C 67.835425,115.62601 64.715209,115.48495 63.540881,116.01489 C 62.330706,116.56101 60.612783,118.94452 60.612783,118.94452 C 60.612783,118.94452 62.125675,116.61481 62.333051,115.47046 C 62.601848,113.98716 62.82128,111.78565 61.825207,110.47133 C 61.063281,109.46596 59.725271,108.53302 58.465512,108.59857 C 57.209831,108.66391 55.598288,109.61654 54.756588,110.55064 C 53.912154,111.48777 53.433487,113.21607 53.194935,114.45477 C 53.128488,114.7998 53.194935,115.62601 53.194935,115.62601 C 53.194935,115.62601 50.989249,115.57736 49.991955,115.67779 z"
         id="path3545"
         sodipodi:nodetypes="csssssssscsscsccscscscscscsscsscscsccscscsscsccscscscccscccscccscccscccsccsccsscccsssssssssssssccccccccsccscscsccscscscscscscscscscscscscsscscscscscscscscscscscscscccccccccscccccccccccccccscscscscsscsscsssssssssssscscscssssssccsccssssccsccsccscssssscs" />
      <path
         style="fill:#1a1a1a;fill-opacity:1;fill-rule:evenodd;stroke:none;stroke-width:2;stroke-linecap:butt;stroke-linejoin:miter;stroke-miterlimit:4;stroke-dasharray:none;stroke-opacity:1"
         d="M 39.32402,135.8679 C 39.031955,136.41354 38.231841,136.92981 38.122303,137.03125 C 37.560686,137.55133 36.287553,138.14244 35.434803,138.34375 C 35.299411,138.37571 34.620995,138.42763 34.091053,138.40625 C 33.561107,138.38486 32.167725,138.22443 32.167725,138.22443 C 32.167725,138.22443 33.67441,140.38233 34.267197,140.40625 C 34.859987,140.43017 35.271252,140.46177 35.903553,140.3125 C 37.110741,140.02752 38.505956,139.41802 39.497303,138.5 C 40.062705,137.97642 40.419309,137.30026 40.747303,136.6875 C 41.075297,136.07474 41.488786,134.78549 41.488786,134.78549 C 41.488786,134.78549 39.616085,135.32226 39.32402,135.8679 z"
         id="path3547"
         sodipodi:nodetypes="cssscsssscs" />
      <path
         sodipodi:type="arc"
         style="fill:#1a1a1a;fill-opacity:1;fill-rule:evenodd;stroke:none;stroke-width:2;stroke-linecap:butt;stroke-linejoin:miter;marker:none;marker-start:none;marker-mid:none;marker-end:none;stroke-miterlimit:4;stroke-dasharray:none;stroke-dashoffset:0;stroke-opacity:1;visibility:visible;display:inline;overflow:visible;enable-background:accumulate"
         id="path3553"
         sodipodi:cx="41.495331"
         sodipodi:cy="126.66912"
         sodipodi:rx="0.61350626"
         sodipodi:ry="0.58561957"
         d="M 42.108837,126.66912 A 0.61350626,0.58561957 0 1 1 40.881825,126.66912 A 0.61350626,0.58561957 0 1 1 42.108837,126.66912 z"
         transform="matrix(1.8181818,0,0,1.952381,-33.545211,-120.19108)" />
      <path
         style="fill:#1a1a1a;fill-opacity:1;fill-rule:evenodd;stroke:none;stroke-width:1px;stroke-linecap:butt;stroke-linejoin:miter;stroke-opacity:1"
         d="M 32.864711,131.36829 C 32.740699,131.55712 31.979156,131.72087 31.819158,131.76024 C 31.509022,131.83655 30.933801,131.67437 30.559803,131.55755 C 30.511404,131.54243 30.221117,131.33892 30.028553,131.12005 C 29.835988,130.90118 29.560685,130.63612 29.560685,130.63612 L 28.833461,131.58704 C 28.833461,131.58704 29.000804,131.8155 29.239711,132.08704 C 29.478619,132.35858 29.751816,132.6944 30.208461,132.83704 C 30.792718,133.01954 31.606253,133.12559 32.270961,132.96204 C 32.881305,132.81187 33.288045,132.45149 33.599527,131.97722 C 33.818725,131.64345 33.908577,131.39859 33.979506,131.0625 C 34.050435,130.72641 33.79439,130.15863 33.79439,130.15863 C 33.79439,130.15863 32.89419,131.3234 32.864711,131.36829 z"
         id="path3555"
         sodipodi:nodetypes="csssccssssscs" />
      <path
         style="fill:#1a1a1a;fill-rule:evenodd;stroke:#1a1a1a;stroke-width:1px;stroke-linecap:butt;stroke-linejoin:miter;stroke-opacity:1"
         d="M 55.35615,114.94278 C 55.35615,114.94278 55.493849,113.82118 55.927827,113.14609 C 56.259041,112.63086 56.449099,112.20938 56.989511,111.92107 C 57.447557,111.6767 57.986953,111.29781 58.459536,111.51273 C 59.300256,111.89505 59.673239,112.89252 59.847893,113.79943 C 59.968357,114.42495 59.731986,115.21734 59.602889,115.84113 C 59.402732,116.80828 58.867876,117.4745 58.867876,117.4745 C 58.867876,117.4745 58.490669,116.1099 57.806192,115.18779 C 57.525296,114.80937 57.13403,114.52551 56.662839,114.53444 C 56.125041,114.54463 55.35615,114.94278 55.35615,114.94278 z"
         id="path3561"
         sodipodi:nodetypes="cssssscssc" />
      <path
         style="fill:none;fill-rule:evenodd;stroke:#1a1a1a;stroke-width:1;stroke-linecap:butt;stroke-linejoin:miter;stroke-miterlimit:4;stroke-dasharray:none;stroke-opacity:1"
         d="M 61.315925,138.50302 C 61.315925,138.50302 61.876087,139.98988 61.670484,140.98493 C 61.571704,141.463 60.872726,143.28956 60.872726,143.28956 C 60.872726,143.28956 59.693913,142.09842 59.277212,141.51677 C 58.833474,140.89738 58.271301,140.24096 58.271301,140.24096 C 58.271301,140.24096 58.312152,141.21477 58.213535,142.04861 C 58.138059,142.68678 57.681697,143.73276 57.681697,143.73276"
         id="path3579"
         sodipodi:nodetypes="cscscsc" />
      <path
         style="fill:#ffffff;fill-rule:evenodd;stroke:#1a1a1a;stroke-width:1;stroke-linecap:butt;stroke-linejoin:miter;stroke-miterlimit:4;stroke-dasharray:none;stroke-opacity:1"
         d="M 165.04827,173.97682 C 165.04827,173.97682 165.05845,175.79119 165.32913,176.50455 C 165.53646,177.05097 166.45257,178.09608 166.45257,178.09608 C 166.45257,178.09608 167.42835,175.98211 167.48238,175.00664 C 167.54909,173.8021 165.89084,171.9172 165.89084,171.9172 C 165.89084,171.9172 167.28319,173.15665 167.76324,173.78958 C 168.07481,174.20038 168.60581,175.2875 168.60581,175.2875 C 168.60581,175.2875 169.05206,173.43957 168.88667,172.66615 C 168.64189,171.52149 166.838,168.46921 166.838,168.46921 L 169.07391,170.88738 C 169.07391,170.88738 169.58919,169.59207 169.54201,169.01499 C 169.44974,167.88658 167.46545,164.64177 167.46545,164.64177 L 169.63563,167.04898 C 169.63563,167.04898 169.88832,164.80791 169.72925,163.86592 C 169.51907,162.62124 168.23134,159.9339 168.23134,159.9339 L 170.66544,162.74249 C 170.66544,162.74249 171.07761,160.13971 170.75906,159.09133 C 170.34899,157.7418 168.0441,155.25293 168.0441,155.25293 L 170.4782,157.12532 C 170.4782,157.12532 170.44691,154.52041 170.10372,153.47416 C 169.75841,152.42147 168.23134,150.2911 168.23134,150.2911"
         id="path3581"
         sodipodi:nodetypes="cscscscsccsccsccsccsc" />
      <path
         style="fill:#ffffff;fill-rule:evenodd;stroke:#1a1a1a;stroke-width:1px;stroke-linecap:butt;stroke-linejoin:miter;stroke-opacity:1"
         d="M 137.68848,121.76405 L 141.22909,120.46434 L 144.40618,119.86179 L 143.20108,121.39555 L 142.54375,122.16244 C 142.54375,122.16244 144.17396,121.1419 144.95395,120.90256 C 145.50739,120.73273 146.87116,120.68345 146.87116,120.68345 L 146.21383,121.88855 L 145.72084,122.65543 C 145.72084,122.65543 147.05435,121.59564 147.7476,121.50511 C 148.77521,121.37091 151.08901,122.38155 151.08901,122.38155 C 151.08901,122.38155 149.33439,122.75699 148.73359,123.20321 C 148.55415,123.33648 148.4597,123.64143 148.4597,123.64143 C 148.4597,123.64143 150.91604,123.19516 151.80112,123.31276 C 152.86896,123.45464 153.60877,124.02487 153.60877,124.02487 L 151.63679,124.79175 L 150.43169,125.12041 C 150.43169,125.12041 153.14911,124.93735 154.21132,125.33952 C 155.30584,125.75392 157.27885,126.81852 157.27885,126.81852 L 153.88266,127.03762 L 152.67756,127.14718 C 152.67756,127.14718 156.04363,127.47419 157.33363,128.07839 C 157.92629,128.35598 159.03173,129.44782 159.03173,129.44782 L 157.6623,129.61216 L 156.34764,129.61216 C 156.34764,129.61216 158.47421,130.10529 159.25084,130.59815 C 159.79054,130.94065 160.89416,131.80325 160.89416,131.80325 L 157.77185,131.69369 L 156.95019,131.63892 L 158.81262,132.35102 C 158.81262,132.35102 161.02656,132.72375 161.7706,133.28224 C 162.29185,133.6735 162.9757,135.08989 162.9757,135.08989 L 160.18205,134.43256 L 161.87019,135.802"
         id="path3583"
         sodipodi:nodetypes="cccccscccscscscccscccscccsccccsccc" />
    </g>
    <g
       style="stroke:#1a1a1a"
       id="g4041">
      <path
         style="fill:#ffcc00;fill-rule:evenodd;stroke:#1a1a1a;stroke-width:1px;stroke-linecap:butt;stroke-linejoin:miter;stroke-opacity:1"
         d="M 90.0815,81.045074 L 90.37431,123.9417 C 90.37431,123.9417 85.96058,123.64965 84.66452,123.06328 C 83.41436,122.49768 82.17564,120.28158 82.17564,120.28158 L 82.17564,79.288215 L 90.0815,81.045074 z"
         id="path3865"
         sodipodi:nodetypes="ccsccc" />
      <path
         style="fill:#ffffff;fill-rule:evenodd;stroke:#1a1a1a;stroke-width:1px;stroke-linecap:butt;stroke-linejoin:miter;stroke-opacity:1"
         d="M 115.55595,76.213712 C 115.55595,76.213712 113.68197,78.980765 114.38471,80.166645 C 114.70368,80.704901 114.76832,81.715307 116.02304,82.49846 C 117.53271,83.440741 119.21608,84.705197 119.21608,84.705197 L 89.34947,84.851601 C 89.34947,84.851601 86.67221,84.365252 84.83951,83.199237 C 83.24872,82.18713 82.80365,81.102417 82.31608,80.176037 C 81.8056,79.206135 82.36511,78.260985 83.38303,77.633235 C 84.64392,76.855646 86.4911,76.506522 86.4911,76.506522 L 115.55595,76.213712 z"
         id="path3861"
         sodipodi:nodetypes="cssccssscc" />
      <rect
         style="fill:#d4aa00;fill-opacity:1;fill-rule:evenodd;stroke:#1a1a1a;stroke-width:1;stroke-linecap:butt;stroke-linejoin:miter;marker:none;marker-start:none;marker-mid:none;marker-end:none;stroke-miterlimit:4;stroke-dasharray:none;stroke-dashoffset:0;stroke-opacity:1;visibility:visible;display:inline;overflow:visible;enable-background:accumulate"
         id="rect3863"
         width="29.720194"
         height="38.943703"
         x="90.227905"
         y="84.851601" />
      <path
         style="fill:none;fill-rule:evenodd;stroke:#1a1a1a;stroke-width:0.89999998;stroke-linecap:butt;stroke-linejoin:miter;stroke-miterlimit:4;stroke-dasharray:none;stroke-opacity:1"
         d="M 114.82684,80.600402 L 100.82684,80.600402"
         id="path3869" />
      <path
         style="fill:none;fill-rule:evenodd;stroke:#1a1a1a;stroke-width:0.89999998;stroke-linecap:butt;stroke-linejoin:miter;stroke-miterlimit:4;stroke-dasharray:none;stroke-opacity:1"
         d="M 114.87229,78.600402 L 102.87229,78.600402"
         id="path3871" />
      <path
         style="fill:none;fill-rule:evenodd;stroke:#1a1a1a;stroke-width:0.89999998;stroke-linecap:butt;stroke-linejoin:miter;stroke-miterlimit:4;stroke-dasharray:none;stroke-opacity:1"
         d="M 102.78517,82.600402 L 115.78517,82.600402"
         id="path3873" />
      <path
         style="fill:none;fill-rule:evenodd;stroke:#1a1a1a;stroke-width:0.80000001;stroke-linecap:butt;stroke-linejoin:miter;stroke-miterlimit:4;stroke-dasharray:none;stroke-opacity:1"
         d="M 87.82684,84.600402 C 87.82684,123.6004 87.82684,123.6004 87.82684,123.6004"
         id="path3875" />
      <path
         style="fill:none;fill-rule:evenodd;stroke:#1a1a1a;stroke-width:0.81019151;stroke-linecap:butt;stroke-linejoin:miter;stroke-miterlimit:4;stroke-dasharray:none;stroke-opacity:1"
         d="M 85.82684,83.590146 C 85.82684,123.59014 85.82684,123.59014 85.82684,123.59014"
         id="path3877" />
      <path
         style="fill:none;fill-rule:evenodd;stroke:#1a1a1a;stroke-width:0.81019151;stroke-linecap:butt;stroke-linejoin:miter;stroke-miterlimit:4;stroke-dasharray:none;stroke-opacity:1"
         d="M 83.82684,82.610658 C 83.82684,122.61066 83.82684,122.61066 83.82684,122.61066"
         id="path3879" />
      <g
         style="stroke:#1a1a1a"
         id="g3896"
         transform="translate(-249.17316,-11.682513)">
        <path
           sodipodi:nodetypes="ccsccsc"
           id="path3892"
           d="M 339.37857,114.24911 L 339.29553,120.22837 C 339.29553,120.22837 336.07167,119.92313 334.88209,119.23529 C 333.69251,118.54745 331.365,115.64277 331.365,115.64277 L 331.365,108.58455 C 331.365,108.58455 333.72157,111.86686 334.92361,112.71655 C 336.12564,113.56623 339.37857,114.24911 339.37857,114.24911 z"
           style="fill:#ffcc00;fill-opacity:1;fill-rule:evenodd;stroke:#1a1a1a;stroke-width:0.80000001;stroke-linecap:butt;stroke-linejoin:miter;stroke-miterlimit:4;stroke-dasharray:none;stroke-opacity:1" />
        <path
           sodipodi:nodetypes="csc"
           id="path3894"
           d="M 331.29043,112.69777 C 331.29043,112.69777 333.65882,115.33843 334.80788,115.99359 C 336.03561,116.69361 339.35204,117.35404 339.35204,117.35404"
           style="fill:none;fill-rule:evenodd;stroke:#1a1a1a;stroke-width:1px;stroke-linecap:butt;stroke-linejoin:miter;stroke-opacity:1" />
      </g>
      <g
         style="stroke:#1a1a1a"
         id="g3900"
         transform="translate(-249.25459,0.16583)">
        <path
           sodipodi:nodetypes="ccsccsc"
           id="path3902"
           d="M 339.37857,114.24911 L 339.29553,120.22837 C 339.29553,120.22837 336.07167,119.92313 334.88209,119.23529 C 333.69251,118.54745 331.365,115.64277 331.365,115.64277 L 331.365,108.58455 C 331.365,108.58455 333.72157,111.86686 334.92361,112.71655 C 336.12564,113.56623 339.37857,114.24911 339.37857,114.24911 z"
           style="fill:#ffcc00;fill-opacity:1;fill-rule:evenodd;stroke:#1a1a1a;stroke-width:0.80000001;stroke-linecap:butt;stroke-linejoin:miter;stroke-miterlimit:4;stroke-dasharray:none;stroke-opacity:1" />
        <path
           sodipodi:nodetypes="csc"
           id="path3904"
           d="M 331.29043,112.69777 C 331.29043,112.69777 333.65882,115.33843 334.80788,115.99359 C 336.03561,116.69361 339.35204,117.35404 339.35204,117.35404"
           style="fill:none;fill-rule:evenodd;stroke:#1a1a1a;stroke-width:1px;stroke-linecap:butt;stroke-linejoin:miter;stroke-opacity:1" />
      </g>
      <g
         style="stroke:#1a1a1a"
         id="g3906"
         transform="translate(-249.25459,-24.137383)">
        <path
           sodipodi:nodetypes="ccsccsc"
           id="path3908"
           d="M 339.37857,114.24911 L 339.29553,120.22837 C 339.29553,120.22837 336.07167,119.92313 334.88209,119.23529 C 333.69251,118.54745 331.365,115.64277 331.365,115.64277 L 331.365,108.58455 C 331.365,108.58455 333.72157,111.86686 334.92361,112.71655 C 336.12564,113.56623 339.37857,114.24911 339.37857,114.24911 z"
           style="fill:#ffcc00;fill-opacity:1;fill-rule:evenodd;stroke:#1a1a1a;stroke-width:0.80000001;stroke-linecap:butt;stroke-linejoin:miter;stroke-miterlimit:4;stroke-dasharray:none;stroke-opacity:1" />
        <path
           sodipodi:nodetypes="csc"
           id="path3910"
           d="M 331.29043,112.69777 C 331.29043,112.69777 333.65882,115.33843 334.80788,115.99359 C 336.03561,116.69361 339.35204,117.35404 339.35204,117.35404"
           style="fill:none;fill-rule:evenodd;stroke:#1a1a1a;stroke-width:1px;stroke-linecap:butt;stroke-linejoin:miter;stroke-opacity:1" />
      </g>
      <g
         style="stroke:#1a1a1a"
         id="g3957"
         transform="translate(-249.17316,-12.399598)">
        <g
           style="stroke:#1a1a1a"
           id="g3948">
          <rect
             style="opacity:1;fill:#d4aa00;fill-opacity:1;fill-rule:evenodd;stroke:#1a1a1a;stroke-width:1;stroke-linecap:butt;stroke-linejoin:miter;marker:none;marker-start:none;marker-mid:none;marker-end:none;stroke-miterlimit:4;stroke-dasharray:none;stroke-dashoffset:0;stroke-opacity:1;visibility:visible;display:inline;overflow:visible;enable-background:accumulate"
             id="rect3867"
             width="22.079412"
             height="30.256971"
             x="343.22147"
             y="101.59457" />
          <g
             style="stroke:#1a1a1a"
             id="g3916">
            <path
               id="path3912"
               d="M 347.01546,101.76634 L 343.28662,106.11666"
               style="fill:none;fill-rule:evenodd;stroke:#1a1a1a;stroke-width:1px;stroke-linecap:butt;stroke-linejoin:miter;stroke-opacity:1" />
            <path
               id="path3914"
               d="M 361.55965,101.76634 L 365.28849,106.11666"
               style="fill:none;fill-rule:evenodd;stroke:#1a1a1a;stroke-width:1px;stroke-linecap:butt;stroke-linejoin:miter;stroke-opacity:1" />
          </g>
          <g
             style="stroke:#1a1a1a"
             id="g3920"
             transform="matrix(1,0,0,-1,2.0537561e-2,233.45914)">
            <path
               id="path3922"
               d="M 347.01546,101.76634 L 343.28662,106.11666"
               style="fill:none;fill-rule:evenodd;stroke:#1a1a1a;stroke-width:1px;stroke-linecap:butt;stroke-linejoin:miter;stroke-opacity:1" />
            <path
               id="path3924"
               d="M 361.55965,101.76634 L 365.28849,106.11666"
               style="fill:none;fill-rule:evenodd;stroke:#1a1a1a;stroke-width:1px;stroke-linecap:butt;stroke-linejoin:miter;stroke-opacity:1" />
          </g>
        </g>
        <g
           transform="translate(42.309267,2.8847809)"
           style="fill:#000000;stroke:#1a1a1a"
           id="g3941">
          <g
             style="fill:#000000;stroke:#1a1a1a"
             id="g3932">
            <rect
               y="105.71828"
               x="311.6781"
               height="16.239988"
               width="0.55574101"
               id="rect3926"
               style="opacity:1;fill:#000000;fill-opacity:1;fill-rule:evenodd;stroke:#1a1a1a;stroke-width:0.80000001;stroke-linecap:butt;stroke-linejoin:miter;marker:none;marker-start:none;marker-mid:none;marker-end:none;stroke-miterlimit:4;stroke-dasharray:none;stroke-dashoffset:0;stroke-opacity:1;visibility:visible;display:inline;overflow:visible;enable-background:accumulate" />
            <rect
               y="108.37349"
               x="309.36252"
               height="0.67923903"
               width="5.1869164"
               id="rect3928"
               style="opacity:1;fill:#000000;fill-opacity:1;fill-rule:evenodd;stroke:#1a1a1a;stroke-width:0.80000001;stroke-linecap:butt;stroke-linejoin:miter;marker:none;marker-start:none;marker-mid:none;marker-end:none;stroke-miterlimit:4;stroke-dasharray:none;stroke-dashoffset:0;stroke-opacity:1;visibility:visible;display:inline;overflow:visible;enable-background:accumulate" />
            <rect
               y="112.25349"
               x="307.96597"
               height="0.57013369"
               width="7.9800143"
               id="rect3930"
               style="opacity:1;fill:#000000;fill-opacity:1;fill-rule:evenodd;stroke:#1a1a1a;stroke-width:0.90910536;stroke-linecap:butt;stroke-linejoin:miter;marker:none;marker-start:none;marker-mid:none;marker-end:none;stroke-miterlimit:4;stroke-dasharray:none;stroke-dashoffset:0;stroke-opacity:1;visibility:visible;display:inline;overflow:visible;enable-background:accumulate" />
          </g>
          <rect
             y="-48.723717"
             x="327.19803"
             height="0.67923903"
             width="5.1869164"
             id="rect3939"
             style="opacity:1;fill:#000000;fill-opacity:1;fill-rule:evenodd;stroke:#1a1a1a;stroke-width:0.80000001;stroke-linecap:butt;stroke-linejoin:miter;marker:none;marker-start:none;marker-mid:none;marker-end:none;stroke-miterlimit:4;stroke-dasharray:none;stroke-dashoffset:0;stroke-opacity:1;visibility:visible;display:inline;overflow:visible;enable-background:accumulate"
             transform="matrix(0.8748538,0.484387,-0.484387,0.8748538,0,0)" />
        </g>
      </g>
    </g>
  </g>
</svg>
